<?xml version="1.0" encoding="UTF-8" standalone="no"?>
<!-- Created with Inkscape (http://www.inkscape.org/) -->

<svg
   xmlns:dc="http://purl.org/dc/elements/1.1/"
   xmlns:cc="http://creativecommons.org/ns#"
   xmlns:rdf="http://www.w3.org/1999/02/22-rdf-syntax-ns#"
   xmlns:svg="http://www.w3.org/2000/svg"
   xmlns="http://www.w3.org/2000/svg"
   xmlns:xlink="http://www.w3.org/1999/xlink"
   xmlns:sodipodi="http://sodipodi.sourceforge.net/DTD/sodipodi-0.dtd"
   xmlns:inkscape="http://www.inkscape.org/namespaces/inkscape"
   width="4212.9922"
   height="2979.9211"
   id="svg2"
   version="1.1"
   inkscape:version="0.48.2 r9819"
   sodipodi:docname="classica_A0.template.svg"
   style="display:inline">
  <defs
     id="defs4" />
  <sodipodi:namedview
     id="base"
     pagecolor="#ffffff"
     bordercolor="#0037cc"
     borderopacity="1"
     inkscape:pageopacity="1"
     inkscape:pageshadow="2"
     inkscape:zoom="0.19672712"
     inkscape:cx="617.94743"
     inkscape:cy="2210.7675"
     inkscape:document-units="px"
     inkscape:current-layer="svg2"
     showgrid="false"
     units="px"
     showguides="true"
     inkscape:window-width="1920"
     inkscape:window-height="1138"
     inkscape:window-x="-8"
     inkscape:window-y="-8"
     inkscape:window-maximized="1"
     showborder="true"
     inkscape:showpageshadow="false"
     width="740px"
     borderlayer="false">
    <inkscape:grid
       type="xygrid"
       id="grid3755"
       empspacing="5"
       visible="true"
       enabled="true"
       snapvisiblegridlinesonly="true" />
  </sodipodi:namedview>
  <metadata
     id="metadata7">
    <rdf:RDF>
      <cc:Work
         rdf:about="">
        <dc:format>image/svg+xml</dc:format>
        <dc:type
           rdf:resource="http://purl.org/dc/dcmitype/StillImage" />
        <dc:title />
      </cc:Work>
    </rdf:RDF>
  </metadata>
  <g
     inkscape:groupmode="layer"
     id="frame"
     inkscape:label="frame"
     style="display:inline"
     sodipodi:insensitive="true">
	{frame}
	</g>
  <g
     inkscape:groupmode="layer"
     id="ra_grid"
     inkscape:label="ra_grid"
     style="fill:none;stroke:#000000;stroke-width:0.5;stroke-dasharray:1.5, 1.5"
     sodipodi:insensitive="true">
	{ra_grid}
	</g>
  <g
     inkscape:groupmode="layer"
     id="ra_ruler"
     inkscape:label="ra_ruler"
     sodipodi:insensitive="true">
	{ra_ruler}
	</g>
  <g
     inkscape:groupmode="layer"
     id="dec_grid"
     inkscape:label="dec_grid"
     style="fill:none;stroke:#000000;stroke-width:0.5;stroke-dasharray:1.5, 1.5"
     sodipodi:insensitive="true">
	{dec_grid}
	</g>
  <g
     inkscape:groupmode="layer"
     id="dec_grid_bold"
     inkscape:label="dec_grid_bold"
     style="fill:none;stroke:#000000;stroke-width:1"
     sodipodi:insensitive="true">
	{dec_grid_bold}
	</g>
  <g
     inkscape:groupmode="layer"
     id="dec_ruler"
     inkscape:label="dec_ruler"
     sodipodi:insensitive="true"
     style="display:inline">
	{dec_ruler}
	</g>
  <g
     inkscape:groupmode="layer"
     id="equator"
     inkscape:label="equator"
     style="fill:none;stroke:#000000;stroke-width:1.5"
     sodipodi:insensitive="true">
	{equator}
	</g>
  <g
     inkscape:groupmode="layer"
     id="legend_circles"
     inkscape:label="legend_circles"
     style="display:inline"
     sodipodi:insensitive="true">
    <g
       id="g39814"
       transform="translate(-600,-2880)">
      <path
         transform="matrix(0.25054965,0,0,0.25054965,-722.1454,1253.9188)"
         d="m -1419.8705,1627.5057 c 0,1.9527 -1.5829,3.5356 -3.5355,3.5356 -1.9526,0 -3.5355,-1.5829 -3.5355,-3.5356 0,-1.9526 1.5829,-3.5355 3.5355,-3.5355 1.9526,0 3.5355,1.5829 3.5355,3.5355 z"
         sodipodi:ry="3.5355339"
         sodipodi:rx="3.5355339"
         sodipodi:cy="1627.5057"
         sodipodi:cx="-1423.406"
         id="legend_circle_star_6"
         style="fill:#000000;fill-opacity:1;stroke:none"
         sodipodi:type="arc" />
      <text
         transform="scale(1.0519664,0.9506007)"
         sodipodi:linespacing="150%"
         id="text39675"
         y="1726.2181"
         x="-1131.3745"
         style="font-size:18px;font-style:normal;font-variant:normal;font-weight:normal;font-stretch:normal;text-align:center;line-height:150%;letter-spacing:0px;word-spacing:0px;writing-mode:lr-tb;text-anchor:middle;fill:#000000;fill-opacity:1;stroke:none;font-family:Bodoni MT;-inkscape-font-specification:Bodoni MT"
         xml:space="preserve"><tspan
           style="font-size:18px;font-style:normal;font-variant:normal;font-weight:normal;font-stretch:normal;text-align:center;line-height:150%;writing-mode:lr-tb;text-anchor:middle;font-family:Bodoni MT;-inkscape-font-specification:Bodoni MT"
           y="1726.2181"
           x="-1131.3745"
           id="tspan39677"
           sodipodi:role="line">Scale of Magnitudes</tspan><tspan
           style="font-size:18px;font-style:normal;font-variant:normal;font-weight:normal;font-stretch:normal;text-align:center;line-height:150%;writing-mode:lr-tb;text-anchor:middle;font-family:Bodoni MT;-inkscape-font-specification:Bodoni MT"
           id="tspan39708"
           y="1753.2181"
           x="-1131.3745"
           sodipodi:role="line" /><tspan
           style="font-size:18px;font-style:italic;font-variant:normal;font-weight:normal;font-stretch:normal;text-align:center;line-height:150%;writing-mode:lr-tb;text-anchor:middle;font-family:Bodoni MT;-inkscape-font-specification:Bodoni MT"
           id="tspan39706"
           y="1780.2181"
           x="-1131.3745"
           sodipodi:role="line">0      1      2      3      4      5      6</tspan></text>
      <path
         sodipodi:type="arc"
         style="fill:#000000;fill-opacity:1;stroke:none"
         id="legend_circle_star_0"
         sodipodi:cx="-1423.406"
         sodipodi:cy="1627.5057"
         sodipodi:rx="3.5355339"
         sodipodi:ry="3.5355339"
         d="m -1419.8705,1627.5057 c 0,1.9527 -1.5829,3.5356 -3.5355,3.5356 -1.9526,0 -3.5355,-1.5829 -3.5355,-3.5356 0,-1.9526 1.5829,-3.5355 3.5355,-3.5355 1.9526,0 3.5355,1.5829 3.5355,3.5355 z"
         transform="matrix(3.0065958,0,0,3.0065958,2979.1981,-3231.5621)" />
      <path
         transform="matrix(2.5054965,0,0,2.5054965,2301.3511,-2416.0201)"
         d="m -1419.8705,1627.5057 c 0,1.9527 -1.5829,3.5356 -3.5355,3.5356 -1.9526,0 -3.5355,-1.5829 -3.5355,-3.5356 0,-1.9526 1.5829,-3.5355 3.5355,-3.5355 1.9526,0 3.5355,1.5829 3.5355,3.5355 z"
         sodipodi:ry="3.5355339"
         sodipodi:rx="3.5355339"
         sodipodi:cy="1627.5057"
         sodipodi:cx="-1423.406"
         id="legend_circle_star_1"
         style="fill:#000000;fill-opacity:1;stroke:none"
         sodipodi:type="arc" />
      <path
         sodipodi:type="arc"
         style="fill:#000000;fill-opacity:1;stroke:none"
         id="legend_circle_star_2"
         sodipodi:cx="-1423.406"
         sodipodi:cy="1627.5057"
         sodipodi:rx="3.5355339"
         sodipodi:ry="3.5355339"
         d="m -1419.8705,1627.5057 c 0,1.9527 -1.5829,3.5356 -3.5355,3.5356 -1.9526,0 -3.5355,-1.5829 -3.5355,-3.5356 0,-1.9526 1.5829,-3.5355 3.5355,-3.5355 1.9526,0 3.5355,1.5829 3.5355,3.5355 z"
         transform="matrix(2.0043972,0,0,2.0043972,1625.3116,-1600.4781)" />
      <path
         transform="matrix(1.5032979,0,0,1.5032979,949.27218,-784.93619)"
         d="m -1419.8705,1627.5057 c 0,1.9527 -1.5829,3.5356 -3.5355,3.5356 -1.9526,0 -3.5355,-1.5829 -3.5355,-3.5356 0,-1.9526 1.5829,-3.5355 3.5355,-3.5355 1.9526,0 3.5355,1.5829 3.5355,3.5355 z"
         sodipodi:ry="3.5355339"
         sodipodi:rx="3.5355339"
         sodipodi:cy="1627.5057"
         sodipodi:cx="-1423.406"
         id="legend_circle_star_3"
         style="fill:#000000;fill-opacity:1;stroke:none"
         sodipodi:type="arc" />
      <path
         sodipodi:type="arc"
         style="fill:#000000;fill-opacity:1;stroke:none"
         id="legend_circle_star_4"
         sodipodi:cx="-1423.406"
         sodipodi:cy="1627.5057"
         sodipodi:rx="3.5355339"
         sodipodi:ry="3.5355339"
         d="m -1419.8705,1627.5057 c 0,1.9527 -1.5829,3.5356 -3.5355,3.5356 -1.9526,0 -3.5355,-1.5829 -3.5355,-3.5356 0,-1.9526 1.5829,-3.5355 3.5355,-3.5355 1.9526,0 3.5355,1.5829 3.5355,3.5355 z"
         transform="matrix(1.0021986,0,0,1.0021986,273.23276,30.605788)" />
      <path
         transform="matrix(0.50109929,0,0,0.50109929,-402.80666,846.14779)"
         d="m -1419.8705,1627.5057 c 0,1.9527 -1.5829,3.5356 -3.5355,3.5356 -1.9526,0 -3.5355,-1.5829 -3.5355,-3.5356 0,-1.9526 1.5829,-3.5355 3.5355,-3.5355 1.9526,0 3.5355,1.5829 3.5355,3.5355 z"
         sodipodi:ry="3.5355339"
         sodipodi:rx="3.5355339"
         sodipodi:cy="1627.5057"
         sodipodi:cx="-1423.406"
         id="legend_circle_star_5"
         style="fill:#000000;fill-opacity:1;stroke:none"
         sodipodi:type="arc" />
    </g>
  </g>
  <g
     inkscape:groupmode="layer"
     id="legend_stars"
     inkscape:label="legend_stars"
     style="display:none"
     sodipodi:insensitive="true">
    <g
       id="stars_mag_scale"
       transform="translate(-600,-2880)">
      <text
         xml:space="preserve"
         style="font-size:18px;font-style:normal;font-variant:normal;font-weight:normal;font-stretch:normal;text-align:center;line-height:150%;letter-spacing:0px;word-spacing:0px;writing-mode:lr-tb;text-anchor:middle;fill:#000000;fill-opacity:1;stroke:none;font-family:Bodoni MT;-inkscape-font-specification:Bodoni MT"
         x="-1131.3745"
         y="1723.4547"
         id="text17124"
         sodipodi:linespacing="150%"
         transform="scale(1.0519664,0.9506007)"><tspan
           sodipodi:role="line"
           id="tspan17126"
           x="-1131.3745"
           y="1723.4547"
           style="font-size:18px;font-style:normal;font-variant:normal;font-weight:normal;font-stretch:normal;text-align:center;line-height:150%;writing-mode:lr-tb;text-anchor:middle;font-family:Bodoni MT;-inkscape-font-specification:Bodoni MT">Scale of Magnitudes</tspan><tspan
           sodipodi:role="line"
           x="-1131.3745"
           y="1750.4547"
           id="tspan17128"
           style="font-size:18px;font-style:normal;font-variant:normal;font-weight:normal;font-stretch:normal;text-align:center;line-height:150%;writing-mode:lr-tb;text-anchor:middle;font-family:Bodoni MT;-inkscape-font-specification:Bodoni MT" /><tspan
           dy="9.0090132"
           sodipodi:role="line"
           x="-1131.3745"
           y="1777.4547"
           id="tspan17130"
           style="font-size:18px;font-style:italic;font-variant:normal;font-weight:normal;font-stretch:normal;text-align:center;line-height:150%;writing-mode:lr-tb;text-anchor:middle;font-family:Bodoni MT;-inkscape-font-specification:Bodoni MT">0      1      2      3      4      5      6</tspan></text>
      <use
         height="3000"
         width="3000"
         transform="translate(-1302.1569,1661.5943)"
         id="legend_star_star_0"
         xlink:href="#source_star_star_0"
         y="0"
         x="0" />
      <use
         transform="translate(-1265.0347,1661.6352)"
         height="3000"
         width="3000"
         id="legend_star_star_1"
         xlink:href="#source_star_star_1"
         y="0"
         x="0" />
      <use
         height="3000"
         width="3000"
         transform="translate(-1227.5607,1661.617)"
         id="legend_star_star_2"
         xlink:href="#source_star_star_2"
         y="0"
         x="0"
         style="display:inline" />
      <use
         height="3000"
         width="3000"
         transform="translate(-1190.5505,1661.563)"
         id="legend_star_star_3"
         xlink:href="#source_star_star_3"
         y="0"
         x="0" />
      <use
         height="3000"
         width="3000"
         transform="translate(-1153.1989,1661.6017)"
         id="legend_star_star_4"
         xlink:href="#source_star_star_4"
         y="0"
         x="0" />
      <use
         height="3000"
         width="3000"
         transform="translate(-1116.0109,1661.598)"
         id="legend_star_star_5"
         xlink:href="#source_star_star_5"
         y="0"
         x="0" />
      <use
         height="3000"
         width="3000"
         transform="translate(-1078.7208,1661.5362)"
         id="legend_star_star_6"
         xlink:href="#source_star_star_6"
         y="0"
         x="0" />
    </g>
  </g>
  <g
     inkscape:groupmode="layer"
     id="title_eng"
     inkscape:label="title_eng"
     style="display:inline"
     sodipodi:insensitive="true">
    <text
       transform="scale(0.93357511,1.0711511)"
       sodipodi:linespacing="125%"
       id="title"
       y="-1222.5681"
       x="-484.58975"
       style="font-size:53.75609589px;font-style:normal;font-variant:normal;font-weight:normal;font-stretch:normal;text-align:start;line-height:125%;letter-spacing:0px;word-spacing:0px;writing-mode:lr-tb;text-anchor:start;fill:#000000;fill-opacity:1;stroke:none;display:inline;font-family:Engravers MT;-inkscape-font-specification:Engravers MT"
       xml:space="preserve"><tspan
         dy="-0.16969275 0 2.5806512e-008"
         dx="20.363195 8.145278 8.145278 8.145278 0 8.145278 5.4301848 8.145278 8.145278 8.145278 8.145278 8.145278 8.145278 8.145278 8.145278 8.145278 5.4301848 8.145278"
         y="-1222.5681"
         x="-484.58975"
         id="tspan39745"
         sodipodi:role="line">The constellations</tspan></text>
  </g>
  <g
     inkscape:groupmode="layer"
     id="helpers"
     inkscape:label="helpers"
     style="display:none"
     sodipodi:insensitive="true">
    <g
       inkscape:groupmode="layer"
       id="center_mark"
       inkscape:label="center_mark"
       style="display:inline"
       sodipodi:insensitive="true">
      <rect
         style="fill:#ffffff;fill-opacity:1;stroke:#ec5151;stroke-opacity:1;display:inline"
         id="star_sources_center_rect"
         width="220"
         height="120"
         x="-130"
         y="-60" />
      <path
         id="star_sources_center_cross"
         style="fill:none;stroke:#ec5151;stroke-width:0.2;stroke-opacity:0.4"
         d="M 0,-60 0,60 M -140,0 100,0 m -200,-60 0,120 m 40,-120 0,120 m 30,-120 0,120 M 30,-60 30,60 M 55,-60 55,60 M 70,-60 70,60"
         inkscape:connector-curvature="0"
         sodipodi:nodetypes="cccccccccccccccc" />
      <line
         id="star_sources_zero_line"
         x1="0"
         y1="-60"
         x2="0"
         y2="60"
         style="fill:none;stroke:#ec5151;stroke-width:0.40000001;stroke-opacity:0.4" />
    </g>
    <g
       inkscape:groupmode="layer"
       id="source_star_6"
       inkscape:label="source_star_6"
       style="display:inline"
       transform="translate(70,0)"
       sodipodi:insensitive="true">
      <path
         style="fill:#000000;fill-opacity:1;stroke:none"
         d="m 1.73445,0.8749 -1.4657,-0.022 -1.1593,0.8971 0.022,-1.4656 -0.8972,-1.1594 1.4657,0.022 1.1593,-0.8971 -0.022,1.4657 z"
         id="source_star_star_6"
         inkscape:connector-curvature="0" />
    </g>
    <g
       inkscape:groupmode="layer"
       id="source_star_5"
       inkscape:label="source_star_5"
       style="display:inline"
       transform="translate(55,0)"
       sodipodi:insensitive="true">
      <path
         style="fill:#000000;fill-opacity:1;stroke:none;display:inline"
         d="M 3.006944,-4.2334523 -0.236472,-1.1563654 -4.290775,-3.0067425 -1.213688,0.21591561 -3.064065,4.2701523 0.17935,1.1930654 4.233587,3.0435091 1.1565,-0.17914908 3.006944,-4.2334523 z m -3.035571,3.28506472 c 0.532652,0 0.956458,0.44449771 0.956458,0.97714978 0,0.53265207 -0.423806,0.95639186 -0.956458,0.95639186 -0.532586,0 -0.956326,-0.42373979 -0.956326,-0.95639186 0,-0.53265207 0.42374,-0.97714978 0.956326,-0.97714978 z"
         id="source_star_star_5"
         inkscape:connector-curvature="0" />
      <path
         style="fill:#000000;fill-opacity:1;stroke:none;display:inline"
         d="m 0.98940119,-24.2864 -1.90062593,3.4019 -3.28389386,2.1019 3.89840219,-0.059 3.46199891,1.7824 -1.9977538,-3.3423 -0.17812751,-3.8845 z m -1.5000112,3.3456 c 0.0585864,-0.033 0.11182299,-0.036 0.1782892,-0.058 0.53165832,-0.1727 1.09692077,0.1153 1.26966246,0.6469 0.17276485,0.5316 -0.11519323,1.0969 -0.64685158,1.2697 -0.53165844,0.1728 -1.09692041,-0.1152 -1.26968531,-0.6469 -0.15114316,-0.4651 0.0591,-0.9794 0.46858523,-1.2118 z"
         id="source_star_star_5_1"
         inkscape:connector-curvature="0" />
    </g>
    <g
       inkscape:groupmode="layer"
       id="source_star_4"
       inkscape:label="source_star_4"
       style="display:inline"
       transform="translate(30,0)"
       sodipodi:insensitive="true">
      <path
         style="fill:#000000;fill-opacity:1;stroke:none;display:inline"
         d="m -1.8839745,-8.686441 0.163422,7.1671744 -7.139793,0.6268269 6.867366,2.07111 L -3.6008585,8.155041 0.48685754,2.2687283 6.6456855,5.9476301 2.2854535,0.25203391 7.7085345,-4.462423 0.92288056,-2.0915034 -1.8839745,-8.686441 z m 1.90751404,6.9763707 c 0.94747902,0 1.71688496,0.76940644 1.71688496,1.71688478 0,0.94747834 -0.76940594,1.71688482 -1.71688496,1.71688482 -0.947391,0 -1.71679704,-0.76940648 -1.71679704,-1.71688482 0,-0.94747834 0.76940604,-1.71688478 1.71679704,-1.71688478 z"
         id="source_star_star_4"
         inkscape:connector-curvature="0" />
    </g>
    <g
       inkscape:groupmode="layer"
       id="source_star_3"
       inkscape:label="source_star_3"
       style="display:inline"
       sodipodi:insensitive="true">
      <path
         style="fill:#000000;fill-opacity:1;stroke:none;display:inline"
         d="m -0.053801,-10.529156 -1.500175,7.792576 -4.62554,-3.833781 3.708767,5.000584 -8.042607,1.583518 7.750905,1.458504 -3.833781,4.583869 5.000585,-3.625423 1.583518,8.000934 1.458504,-7.792576 4.62554,3.875452 -3.667095,-5.042256 8.000935,-1.583518 -7.750906,-1.458504 3.833782,-4.583869 -5.000585,3.625424 -1.541847,-8.000934 z m 0,8.542664 c 1.082132,0 1.958563,0.876431 1.958563,1.958562 0,1.082131 -0.876431,1.958562 -1.958563,1.958562 -1.082131,0 -1.958562,-0.876431 -1.958562,-1.958562 0,-1.082131 0.876431,-1.958562 1.958562,-1.958562 z"
         id="source_star_star_3"
         inkscape:connector-curvature="0" />
    </g>
    <g
       inkscape:groupmode="layer"
       id="source_star_2"
       inkscape:label="source_star_2"
       style="display:inline"
       transform="translate(-30,0)"
       sodipodi:insensitive="true">
      <path
         style="fill:#000000;fill-opacity:1;stroke:none;display:inline"
         d="m 0.03125,-10.7031 -1.625,7.9062 -7.6875,-2.5625 6.0625,5.375 -6.0625,5.375 7.6875,-2.5625 1.625,7.9062 1.625,-7.9062 7.6562,2.5625 -6.0312,-5.375 6.0312,-5.375 -7.6562,2.5625 -1.625,-7.9062 z m 0,8.2187 c 1.3754,0 2.4688,1.1246 2.4688,2.5 0,1.3754 -1.0934,2.5 -2.4688,2.5 -1.3754,0 -2.5,-1.1246 -2.5,-2.5 0,-1.3754 1.1246,-2.5 2.5,-2.5 z"
         id="source_star_star_2"
         inkscape:connector-curvature="0" />
    </g>
    <g
       inkscape:groupmode="layer"
       id="source_star_1"
       inkscape:label="source_star_1"
       style="display:inline"
       transform="translate(-60,0)"
       sodipodi:insensitive="true">
      <path
         style="fill:#000000;fill-opacity:1;stroke:none;display:inline"
         d="m 1.09375,-14.2226 -2.3438,10.4062 -8.0312,-7 5.6874,9 -10.5937,0.75 10.375,2.3125 -6.9687,8.0313 8.9687,-5.6876 0.75,10.625 2.3437,-10.4062 8.0313,7 -5.7187,-9 10.625,-0.75 -10.375,-2.3125 6.9687,-8.0313 -9,5.6876 -0.7187,-10.625 z M -5e-5,-2.8476 c 1.5728,0 2.875,1.2709 2.875,2.8437 0,1.5728 -1.3022,2.8437 -2.875,2.8437 -1.5728,0 -2.8438,-1.2709 -2.8438,-2.8437 0,-1.5728 1.271,-2.8437 2.8438,-2.8437 z"
         id="source_star_star_1"
         inkscape:connector-curvature="0" />
    </g>
    <g
       inkscape:groupmode="layer"
       id="source_star_0"
       inkscape:label="source_star_0"
       style="display:inline"
       transform="translate(-100,0)"
       sodipodi:insensitive="true">
      <path
         style="fill:#000000;fill-opacity:1;stroke:none;display:inline"
         d="m 0.01565,-19.1601 -1.625,13.7187 -3.4376,-5.8437 2.4688,6.3437 -10.9375,-8.625 8.5,10.8438 -6.5313,-1.6562 6.1876,2.7187 -13.7813,1.6563 13.6875,1.625 -5.7812,3.4374 6.3124,-2.4374 -8.5937,10.9062 10.8125,-8.5 -1.6562,6.5312 2.75,-6.25 1.625,13.8438 1.625,-13.6875 3.4687,5.8125 -2.4687,-6.3438 10.9374,8.5938 -8.5312,-10.8125 6.5312,1.6563 -6.1874,-2.7188 13.7812,-1.6562 -13.6562,-1.625 5.7812,-3.4688 -6.3438,2.4688 8.625,-10.9376 -10.8437,8.5313 1.6563,-6.5313 -2.7188,6.1876 -1.6562,-13.7813 z m 0,15.2187 c 2.1607,0 3.9062,1.7768 3.9062,3.9375 0,2.1608 -1.7455,3.9063 -3.9062,3.9063 -2.1608,0 -3.9063,-1.7455 -3.9063,-3.9063 0,-2.1607 1.7455,-3.9375 3.9063,-3.9375 z"
         id="source_star_star_0"
         inkscape:connector-curvature="0" />
    </g>
    <path
       id="legend_grid"
       style="fill:none;stroke:#ff6969;stroke-width:1;stroke-opacity:0.41132076;display:inline"
       d="m -1930.7319,-1218.3904 263.0624,0 m -11.0946,-16.8447 0,63.0624 m -37.25,-63.0624 0,63.0624 m -37.1231,0 0,-63.0624 m -37.3769,0 0,63.0624 m -37.1231,0 0,-63.0624 m -37.3769,0 0,63.0624 m -37.1231,0 0,-63.0624"
       inkscape:connector-curvature="0" />
  </g>
  <g
     inkscape:groupmode="layer"
     id="star_circles"
     inkscape:label="star_circles"
     style="fill:#000000;stroke:none;display:inline"
     sodipodi:insensitive="true"
     transform="scale(1,-1)">
	{star_circles}
	<g
   inkscape:groupmode="layer"
   id="star_circles_6"
   inkscape:label="star_circles_6"
   sodipodi:insensitive="true">
	{star_circles_6}
	</g>
</g>
  <g
     inkscape:groupmode="layer"
     id="star_stars"
     inkscape:label="star_stars"
     style="display:none"
     sodipodi:insensitive="true"
     transform="scale(1,-1)">
	{star_stars}
  <g
   inkscape:groupmode="layer"
   id="star_stars_6"
   inkscape:label="star_stars_6">
	{star_stars_6}
	</g>
</g>
  <g
     inkscape:groupmode="layer"
     id="star_crosses"
     inkscape:label="star_crosses"
     sodipodi:insensitive="true"
     style="fill:none;stroke:#00ff00;stroke-width:0.5;display:none"
     transform="scale(1,-1)">
	{star_crosses}
	</g>
  <g
     inkscape:groupmode="layer"
     id="star_numbers"
     inkscape:label="star_numbers"
     sodipodi:insensitive="true"
     style="font-size:8pt;fill:blue;stroke:none;font-family:Arial">
	{star_numbers}
	</g>
  <g
     inkscape:groupmode="layer"
     id="constellation_bound_points"
     inkscape:label="constellation_bound_points"
     sodipodi:insensitive="true"
     style="fill:blue;stroke:none;font-size:3pt;stroke:none;font-family:Arial">
	{constellation_bound_points}
	</g>
  <g
     inkscape:groupmode="layer"
     id="constellation_boundaries_iau"
     inkscape:label="constellation_boundaries_iau"
     sodipodi:insensitive="true"
     style="fill:none;stroke:#999999;stroke-width:0.5"
     transform="scale(1,-1)">
	{constellation_boundaries_iau}
	</g>
  <g
     inkscape:groupmode="layer"
     id="constellation_boundaries_1875"
     inkscape:label="constellation_boundaries_1875"
     sodipodi:insensitive="true"
     style="fill:none;stroke:#99FF99;stroke-width:0.5"
     transform="scale(1,-1)">
	{constellation_boundaries_1875}
	</g>
  <g
     inkscape:groupmode="layer"
     id="constellation_boundaries_2000"
     inkscape:label="constellation_boundaries_2000"
     sodipodi:insensitive="true"
     style="fill:none;stroke:#FF9999;stroke-width:0.5"
     transform="scale(1,-1)">
	{constellation_boundaries_2000}
	</g>
  <g
     inkscape:groupmode="layer"
     id="page"
     inkscape:label="page"
     sodipodi:insensitive="true">
    <rect
       id="page_border"
       width="4212.9902"
       height="2979.9199"
       x="-2108.4951"
       y="-1489.96"
       style="fill:none;stroke:#ff0000;stroke-width:4" />
    <rect
       id="page_margins"
       width="4106.6929"
       height="2873.6221"
       x="-2053.3464"
       y="-1436.811"
       style="fill:none;stroke:#ff0000;stroke-width:4;stroke-dasharray:15, 15" />
  </g>
</svg>
